<?xml version="1.0" encoding="utf-8"?>
<!-- Generator: Adobe Illustrator 24.0.1, SVG Export Plug-In . SVG Version: 6.00 Build 0)  -->
<!DOCTYPE svg PUBLIC "-//W3C//DTD SVG 1.1//EN" "http://www.w3.org/Graphics/SVG/1.1/DTD/svg11.dtd" [
	<!ENTITY ns_extend "http://ns.adobe.com/Extensibility/1.0/">
	<!ENTITY ns_ai "http://ns.adobe.com/AdobeIllustrator/10.0/">
	<!ENTITY ns_graphs "http://ns.adobe.com/Graphs/1.0/">
	<!ENTITY ns_vars "http://ns.adobe.com/Variables/1.0/">
	<!ENTITY ns_imrep "http://ns.adobe.com/ImageReplacement/1.0/">
	<!ENTITY ns_sfw "http://ns.adobe.com/SaveForWeb/1.0/">
	<!ENTITY ns_custom "http://ns.adobe.com/GenericCustomNamespace/1.0/">
	<!ENTITY ns_adobe_xpath "http://ns.adobe.com/XPath/1.0/">
]>
<svg version="1.1" id="Layer_1" xmlns:x="&ns_extend;" xmlns:i="&ns_ai;" xmlns:graph="&ns_graphs;"
	 xmlns="http://www.w3.org/2000/svg" xmlns:xlink="http://www.w3.org/1999/xlink" x="0px" y="0px" viewBox="0 0 735 661"
	 style="enable-background:new 0 0 735 661;" xml:space="preserve">
<style type="text/css">
	.st0{clip-path:url(#SVGID_2_);}
	.st1{fill-rule:evenodd;clip-rule:evenodd;fill:#ED6F60;}
	.st2{fill:none;stroke:#FFFFFF;stroke-linejoin:round;}
	.st3{fill-rule:evenodd;clip-rule:evenodd;fill:#FFFFFF;}
	.st4{fill-rule:evenodd;clip-rule:evenodd;fill:#61A7D9;}
	.st5{fill-rule:evenodd;clip-rule:evenodd;fill:#F0A95D;}
	.st6{fill:none;stroke:#F0A95D;stroke-linejoin:round;}
	.st7{fill:none;stroke:#ED6F60;stroke-linejoin:round;}
	.st8{fill-rule:evenodd;clip-rule:evenodd;fill-opacity:0;}
	.st9{fill:none;stroke:#FFFFFF;stroke-width:8;stroke-linejoin:round;}
	.st10{fill:none;stroke:#5298CE;stroke-width:8;stroke-linejoin:round;}
	.st11{fill-rule:evenodd;clip-rule:evenodd;fill:#E76759;}
	.st12{fill:none;stroke:#E76759;stroke-linejoin:round;}
	.st13{fill-rule:evenodd;clip-rule:evenodd;fill:#4C93CA;}
	.st14{fill:none;stroke:#4C93CA;stroke-linejoin:round;}
</style>
<metadata>
	<sfw  xmlns="&ns_sfw;">
		<slices></slices>
		<sliceSourceBounds  bottomLeftOrigin="true" height="737" width="1038.8" x="0" y="0"></sliceSourceBounds>
	</sfw>
</metadata>
<title>cncmNewLogo</title>
<g>
	<defs>
		<rect id="SVGID_1_" x="-128" y="-22.3" width="1038.8" height="737"/>
	</defs>
	<clipPath id="SVGID_2_">
		<use xlink:href="#SVGID_1_"  style="overflow:visible;"/>
	</clipPath>
	<g class="st0">
		<path class="st1" d="M103,423.5L103,423.5c0-110.5,89.6-200.2,200.2-200.2l0,0c110.5,0,200.2,89.6,200.2,200.2c0,0,0,0,0,0l0,0
			c0,110.6-89.6,200.2-200.2,200.2l0,0C192.6,623.7,103,534.1,103,423.5z"/>
		<path class="st2" d="M103,423.5L103,423.5c0-110.5,89.6-200.2,200.2-200.2l0,0c110.5,0,200.2,89.6,200.2,200.2c0,0,0,0,0,0l0,0
			c0,110.6-89.6,200.2-200.2,200.2l0,0C192.6,623.7,103,534.1,103,423.5z"/>
		<path class="st3" d="M498.5,358.6l87.4,87.4L439.2,592.8l-87.4-87.4L498.5,358.6z"/>
		<path class="st3" d="M498.8,375.7l-196.9,47.2l192.7-62.1L498.8,375.7z"/>
		<path class="st2" d="M498.8,375.7l-196.9,47.2l192.7-62.1L498.8,375.7z"/>
		<path class="st3" d="M128.2,423.3L128.2,423.3c0-97.7,79.2-176.9,176.9-176.9l0,0l0,0c97.7,0,176.9,79.2,176.9,176.9l0,0
			c0,97.7-79.2,176.8-176.9,176.8l0,0C207.4,600.1,128.2,521,128.2,423.3z"/>
		<path class="st2" d="M128.2,423.3L128.2,423.3c0-97.7,79.2-176.9,176.9-176.9l0,0l0,0c97.7,0,176.9,79.2,176.9,176.9l0,0
			c0,97.7-79.2,176.8-176.9,176.8l0,0C207.4,600.1,128.2,521,128.2,423.3z"/>
		<path class="st3" d="M383.5,235.9l-81,184.2l46.2-195.9L383.5,235.9z"/>
		<path class="st2" d="M383.5,235.9l-81,184.2l46.2-195.9L383.5,235.9z"/>
		<path class="st3" d="M370.1,229.6h143.5v149.3H370.1V229.6z"/>
		<path class="st4" d="M423.2,117.6l15.9-4.8l76.7,254.3l-15.9,4.8L423.2,117.6z"/>
		<path class="st5" d="M513.2,378.9l-14.3,25.8l-0.1-29.5L513.2,378.9z"/>
		<path class="st6" d="M513.2,378.9l-14.3,25.8l-0.1-29.5L513.2,378.9z"/>
		<path class="st1" d="M498.9,392.4v12.2l5.9-10.7L498.9,392.4z"/>
		<path class="st7" d="M498.9,392.4v12.2l5.9-10.7L498.9,392.4z"/>
		<path class="st8" d="M385,92.6L385,92.6c0-19.2,15.6-34.8,34.8-34.8l0,0c19.2,0,34.8,15.6,34.8,34.8l0,0
			c0,19.2-15.6,34.8-34.8,34.8c0,0,0,0,0,0l0,0C400.6,127.4,385,111.8,385,92.6z"/>
		<path class="st9" d="M385,92.6L385,92.6c0-19.2,15.6-34.8,34.8-34.8l0,0c19.2,0,34.8,15.6,34.8,34.8l0,0
			c0,19.2-15.6,34.8-34.8,34.8c0,0,0,0,0,0l0,0C400.6,127.4,385,111.8,385,92.6z"/>
		<path class="st8" d="M390.5,92L390.5,92c0-16.1,13.1-29.2,29.2-29.2l0,0l0,0c16.1,0,29.2,13.1,29.2,29.2l0,0
			c0,16.1-13.1,29.2-29.2,29.2l0,0C403.6,121.2,390.5,108.1,390.5,92z"/>
		<path class="st10" d="M390.5,92L390.5,92c0-16.1,13.1-29.2,29.2-29.2l0,0l0,0c16.1,0,29.2,13.1,29.2,29.2l0,0
			c0,16.1-13.1,29.2-29.2,29.2l0,0C403.6,121.2,390.5,108.1,390.5,92z"/>
		<path class="st5" d="M559.7,140.7l15.3,4l-61.4,234.2l-15.3-4L559.7,140.7z"/>
		<path class="st3" d="M476.4,319.3L303.2,424.8l156.5-129L476.4,319.3z"/>
		<path class="st2" d="M476.4,319.3L303.2,424.8l156.5-129L476.4,319.3z"/>
		<path class="st3" d="M438.3,270.1l-134,152.1l114.9-167L438.3,270.1z"/>
		<path class="st2" d="M438.3,270.1l-134,152.1l114.9-167L438.3,270.1z"/>
		<path class="st3" d="M497.3,364.7l-193.5,59.6l188.4-74.1L497.3,364.7z"/>
		<path class="st2" d="M497.3,364.7l-193.5,59.6l188.4-74.1L497.3,364.7z"/>
		<path class="st1" d="M393.1,250c47.4,24.6,82.7,67.6,97.6,118.9L303,423.5L393.1,250z"/>
		<path class="st8" d="M393.1,250c47.4,24.6,82.7,67.6,97.6,118.9"/>
		<path class="st2" d="M393.1,250c47.4,24.6,82.7,67.6,97.6,118.9"/>
		<path class="st3" d="M389.5,255.4L389.5,255.4c46.2,24,80.6,65.9,95.2,115.9l-183.1,53.3L389.5,255.4z"/>
		<path class="st8" d="M389.5,255.4L389.5,255.4c46.2,24,80.6,65.9,95.2,115.9"/>
		<path class="st3" d="M424.4,267.2L424.4,267.2c7.4,5.8,14.3,12.1,20.8,18.9L301.6,423.3L424.4,267.2z"/>
		<path class="st8" d="M424.4,267.2L424.4,267.2c7.4,5.8,14.3,12.1,20.8,18.9"/>
		<path class="st3" d="M468,314.5L468,314.5c4.6,6.9,8.7,14.1,12.4,21.6l-178.1,87.8L468,314.5z"/>
		<path class="st8" d="M468,314.5L468,314.5c4.6,6.9,8.7,14.1,12.4,21.6"/>
		<path class="st11" d="M300.9,423.5L300.9,423.5c0-1.2,0.9-2.2,2-2.2c0,0,0,0,0,0l0,0c0.6,0,1.1,0.2,1.5,0.6c0.4,0.4,0.6,1,0.6,1.5
			l0,0c0,1.2-0.9,2.2-2,2.2c0,0,0,0,0,0l0,0C301.8,425.7,300.9,424.7,300.9,423.5C300.9,423.5,300.9,423.5,300.9,423.5z"/>
		<path class="st12" d="M300.9,423.5L300.9,423.5c0-1.2,0.9-2.2,2-2.2c0,0,0,0,0,0l0,0c0.6,0,1.1,0.2,1.5,0.6c0.4,0.4,0.6,1,0.6,1.5
			l0,0c0,1.2-0.9,2.2-2,2.2c0,0,0,0,0,0l0,0C301.8,425.7,300.9,424.7,300.9,423.5C300.9,423.5,300.9,423.5,300.9,423.5z"/>
		<path class="st13" d="M321.1,395l-17.6,29.8l3.5-34.6L321.1,395z"/>
		<path class="st14" d="M321.1,395l-17.6,29.8l3.5-34.6L321.1,395z"/>
		<path class="st13" d="M400.8,114.6l15.3,5.2l-94.5,275.5l-15.3-5.3L400.8,114.6z"/>
	</g>
</g>
</svg>
